<!DOCTYPE svg PUBLIC "-//W3C//DTD SVG 20010904//EN" "http://www.w3.org/TR/2001/REC-SVG-20010904/DTD/svg10.dtd">
<svg version="1.0" xmlns="http://www.w3.org/2000/svg" width="327px" height="154px" viewBox="0 0 3270 1540" preserveAspectRatio="xMidYMid meet">
<g id="layer101" fill="#ff0a16" stroke="none">
 <path d="M200 1522 c-37 -21 -83 -93 -62 -100 7 -2 12 -8 12 -13 0 -6 -4 -7 -10 -4 -5 3 -14 -4 -20 -17 -19 -46 -120 -458 -120 -490 0 -39 30 -92 62 -109 13 -7 70 -25 128 -41 90 -24 105 -26 113 -13 9 17 37 20 37 5 0 -5 -4 -10 -10 -10 -5 0 -10 -4 -10 -10 0 -17 28 -11 40 8 9 15 10 14 5 -5 -6 -22 3 -29 29 -24 5 1 27 -7 50 -18 23 -10 67 -24 97 -29 30 -6 73 -18 95 -26 21 -9 55 -17 74 -19 19 -3 42 -7 50 -10 32 -13 237 -69 268 -74 20 -3 32 -1 32 6 0 6 10 11 22 11 21 0 21 -1 3 -14 -17 -12 -17 -13 8 -20 14 -3 33 -3 41 0 9 3 16 1 16 -5 0 -5 19 -15 43 -21 23 -6 50 -13 60 -16 13 -4 17 1 17 19 0 29 -12 40 -65 55 -33 10 -42 9 -57 -5 -17 -15 -18 -15 -18 5 0 17 -10 23 -57 32 -32 7 -65 16 -74 20 -9 5 -34 12 -55 16 -47 10 -46 9 -64 17 -8 3 -91 26 -185 51 -203 53 -444 118 -539 145 -76 21 -109 50 -103 89 3 12 0 25 -4 28 -5 3 -9 10 -9 15 0 6 5 7 12 3 7 -5 9 -2 5 9 -3 8 1 21 9 27 8 7 14 28 14 46 0 19 4 34 9 34 7 0 92 294 95 330 0 8 3 17 6 20 3 3 10 14 16 25 23 42 51 41 237 -9 96 -26 181 -48 188 -50 8 -1 19 -4 24 -8 6 -3 46 -13 90 -23 44 -9 87 -21 97 -26 11 -5 20 -3 29 7 27 33 -66 78 -221 108 -31 6 -144 36 -265 70 -107 31 -139 32 -185 8z"/>
 <path d="M231 1443 c-16 -13 -34 -61 -66 -183 -25 -91 -43 -171 -40 -177 2 -7 1 -13 -3 -13 -12 0 -42 -106 -42 -149 0 -26 7 -43 23 -58 23 -20 38 -26 192 -67 445 -121 611 -158 583 -131 -6 6 -132 44 -163 49 -33 6 -329 87 -350 96 -11 5 -33 11 -50 14 -133 23 -187 43 -205 75 -6 12 -9 25 -6 29 3 5 7 19 9 33 3 13 10 44 17 68 6 23 9 46 6 49 -3 3 -1 11 4 18 6 6 13 20 15 30 16 72 79 281 87 292 16 18 53 15 173 -18 120 -32 149 -36 143 -18 -4 12 -237 78 -279 78 -15 0 -36 -8 -48 -17z"/>
 <path d="M594 1373 c15 -4 16 -7 5 -15 -10 -7 -6 -8 14 -3 16 3 26 2 23 -3 -3 -5 41 -21 97 -36 56 -14 112 -29 123 -32 16 -4 23 0 27 15 3 12 0 24 -5 28 -7 3 -8 1 -4 -5 10 -17 0 -16 -143 23 -71 19 -135 34 -142 34 -8 -1 -5 -4 5 -6z"/>
 <path d="M883 1366 c9 -7 17 -21 17 -29 0 -10 15 -23 35 -31 52 -22 163 -48 174 -42 5 4 16 0 24 -8 8 -8 32 -18 53 -22 47 -10 45 -9 67 -17 41 -16 46 -15 50 6 l4 22 2 -22 c1 -24 38 -40 66 -29 8 3 15 1 15 -3 0 -14 32 -23 43 -12 7 7 22 3 45 -11 33 -20 37 -21 64 -5 15 9 28 12 28 6 0 -5 -10 -13 -22 -18 -23 -8 -17 -10 217 -71 109 -28 117 -31 112 -37 -3 -2 -47 7 -99 21 -299 83 -299 83 -284 58 10 -17 441 -137 456 -127 5 3 11 1 15 -5 9 -14 37 -12 33 2 -3 7 -22 18 -44 24 -38 10 -38 11 -11 16 15 3 30 1 33 -4 3 -5 12 -4 21 3 12 10 16 10 24 -2 8 -12 10 -12 19 1 8 12 10 11 10 -7 0 -14 6 -23 15 -23 12 0 13 4 5 19 -14 26 -13 31 5 25 8 -4 15 -1 15 5 0 5 -17 15 -37 20 -21 6 -123 33 -228 62 -104 28 -206 54 -226 58 -19 4 -41 11 -48 15 -20 13 -61 14 -61 3 0 -6 -6 -4 -12 5 -16 20 -64 28 -61 11 4 -17 -48 2 -65 25 -9 12 -15 14 -20 5 -6 -9 -16 -7 -40 7 -18 11 -42 20 -53 20 -12 0 -35 7 -52 15 -33 15 -289 85 -310 85 -7 0 -4 -7 6 -14z"/>
 <path d="M890 1287 c0 -13 202 -74 273 -83 38 -5 31 18 -9 27 -16 4 -80 21 -143 38 -133 36 -121 34 -121 18z"/>
 <path d="M323 1275 c-68 -29 -116 -150 -93 -234 13 -51 67 -111 99 -111 23 0 29 28 10 47 -17 17 46 242 77 271 13 13 22 27 19 33 -9 13 -75 10 -112 -6z"/>
 <path d="M446 1263 c-5 -11 2 -24 19 -37 14 -12 29 -34 33 -50 9 -34 29 -45 38 -22 10 26 -5 67 -36 97 -33 33 -45 36 -54 12z"/>
 <path d="M571 1227 c-8 -8 -6 -16 7 -30 14 -15 18 -44 22 -146 l5 -126 18 34 c14 24 18 51 16 95 -4 107 -1 123 22 129 33 9 17 30 -33 43 -33 8 -50 8 -57 1z"/>
 <path d="M728 1189 c-10 -6 -10 -11 -1 -20 8 -8 9 -18 1 -34 -9 -21 -14 -22 -40 -13 -24 8 -32 8 -39 -3 -9 -15 14 -39 38 -39 8 0 -6 -36 -37 -93 -28 -52 -50 -101 -50 -110 0 -11 14 -20 43 -27 23 -6 47 -13 54 -15 7 -2 45 58 90 141 43 79 83 144 89 144 17 0 26 30 11 35 -53 21 -148 41 -159 34z"/>
 <path d="M1254 1189 c-4 -8 -3 -9 4 -5 7 4 12 2 12 -3 0 -6 5 -11 11 -11 13 0 7 22 -8 27 -6 2 -15 -1 -19 -8z"/>
 <path d="M1320 1179 c0 -6 -4 -7 -10 -4 -5 3 -10 1 -10 -6 0 -6 8 -9 20 -6 11 3 20 2 20 -3 0 -9 112 -42 119 -35 3 3 -2 11 -10 19 -19 18 -129 47 -129 35z"/>
 <path d="M910 1130 c0 -6 5 -18 11 -28 9 -14 5 -40 -15 -114 -32 -117 -32 -117 -2 -89 22 21 30 42 55 137 8 28 19 44 36 52 33 15 32 28 -6 41 -40 14 -79 14 -79 1z"/>
 <path d="M995 971 c-66 -66 -133 -125 -148 -131 -40 -13 -29 -32 29 -52 86 -29 90 -28 196 80 87 86 99 103 109 149 7 29 11 55 8 57 -2 2 -20 7 -39 10 -34 7 -38 3 -155 -113z"/>
 <path d="M2100 1021 c0 -24 6 -31 33 -40 17 -5 44 -9 59 -9 29 1 58 -22 58 -45 0 -9 18 -22 43 -31 59 -21 338 -96 562 -151 277 -67 295 -73 307 -100 7 -17 6 -30 -6 -53 -9 -17 -16 -35 -15 -39 2 -16 -14 -53 -23 -53 -6 0 -8 -14 -4 -32 3 -19 -1 -54 -10 -83 -8 -27 -18 -61 -20 -75 -10 -51 -38 -146 -51 -172 -16 -34 -45 -36 -130 -10 -32 10 -65 17 -73 16 -8 0 -24 -2 -34 -2 -30 -3 -15 -11 60 -32 131 -38 180 -36 203 8 8 14 44 148 76 279 3 10 16 59 30 108 28 100 31 136 14 168 -12 22 -12 22 10 3 27 -24 27 -60 1 -151 -11 -39 -22 -87 -24 -107 -2 -21 -8 -43 -13 -50 -6 -7 -25 -69 -42 -138 -39 -147 -53 -170 -113 -175 -24 -2 -46 1 -49 6 -3 6 -29 16 -57 23 -48 13 -52 13 -57 -5 -6 -17 -9 -16 -32 12 -20 24 -32 30 -52 26 -14 -3 -33 1 -41 8 -20 18 -248 77 -270 70 -9 -3 -23 1 -29 9 -7 8 -35 20 -64 26 -29 7 -76 19 -105 28 -50 15 -54 15 -63 -1 -14 -24 -36 -21 -35 5 1 21 -9 26 -99 49 -55 15 -186 50 -292 78 -106 29 -200 54 -210 56 -10 2 -58 15 -108 29 -49 13 -103 26 -120 28 -26 3 -30 0 -30 -22 0 -22 7 -27 65 -43 162 -45 215 -56 219 -46 1 5 8 3 15 -5 6 -9 56 -27 111 -41 145 -37 235 -67 235 -78 0 -5 11 -6 25 -3 31 8 137 -21 148 -41 5 -8 16 -11 27 -8 11 3 47 6 82 6 47 1 65 -3 75 -17 16 -21 87 -54 132 -60 18 -2 47 -11 65 -18 17 -8 47 -18 66 -21 19 -4 41 -12 47 -17 7 -6 26 -8 43 -6 16 3 30 1 30 -3 0 -4 15 -10 33 -14 46 -9 101 -29 108 -37 3 -4 29 -9 58 -10 29 -1 55 -6 57 -10 3 -4 27 -8 55 -8 41 0 49 3 49 19 0 11 9 21 21 24 12 3 18 10 15 16 -4 5 2 9 14 8 11 -1 20 -3 20 -5 0 -11 -43 -41 -51 -36 -5 3 -9 0 -9 -5 0 -18 19 -12 56 16 42 31 59 64 63 117 2 22 7 50 12 63 6 16 5 23 -3 23 -6 0 -8 3 -5 7 4 3 3 11 -2 17 -6 7 -4 21 4 36 11 19 14 21 15 8 0 -10 5 -18 10 -18 9 0 14 15 11 34 -1 4 8 45 19 91 11 45 23 91 25 101 2 11 9 35 14 54 14 46 14 99 -2 130 -16 33 -68 66 -120 78 -23 5 -101 26 -173 46 -148 40 -148 40 -138 24 4 -6 -1 -17 -12 -25 -16 -12 -17 -15 -4 -23 17 -11 0 -13 -24 -4 -15 6 -15 7 0 19 16 11 16 14 -2 38 -24 31 -197 83 -202 60 -2 -7 -7 -13 -12 -13 -5 0 -7 7 -4 15 5 11 -1 15 -17 15 -19 0 -21 -2 -9 -10 13 -8 12 -10 -3 -10 -11 0 -21 9 -24 21 -4 16 -12 20 -29 16 -13 -2 -24 -1 -24 4 0 8 -44 22 -108 35 -25 5 -32 3 -32 -9 0 -9 -4 -19 -10 -22 -6 -3 -7 1 -4 10 6 16 -11 45 -27 45 -5 0 -7 -11 -3 -25 5 -19 2 -25 -9 -25 -19 0 -31 17 -16 22 21 7 -3 38 -30 37 -17 -1 -20 -3 -8 -6 16 -4 25 -23 10 -23 -15 0 -38 20 -38 32 0 12 -33 25 -67 27 -13 1 -18 -7 -18 -28z m270 -87 c0 -17 7 -23 36 -28 19 -4 42 -10 50 -13 9 -3 14 2 14 16 0 12 6 21 15 21 18 0 19 -12 3 -28 -9 -9 -6 -14 13 -21 36 -15 14 -13 -52 4 -33 9 -63 14 -67 11 -13 -8 -37 18 -38 40 0 11 6 21 13 21 7 0 13 -10 13 -23z m256 -85 c46 -12 83 -24 81 -26 -5 -4 -169 36 -176 43 -8 7 8 4 95 -17z m241 -76 c-8 -7 -37 9 -31 19 3 5 12 4 20 -3 8 -6 13 -14 11 -16z m266 -59 c15 -3 27 -10 27 -14 0 -4 -19 -1 -42 7 -44 15 -69 30 -33 20 11 -3 32 -9 48 -13z"/>
 <path d="M445 1005 c-16 -21 -39 -38 -56 -42 -20 -4 -29 -12 -29 -24 0 -15 7 -19 34 -19 18 0 39 -7 46 -15 7 -8 16 -12 20 -10 10 6 40 105 40 129 0 27 -26 18 -55 -19z"/>
 <path d="M1279 1007 c-67 -45 -103 -150 -79 -230 13 -45 68 -107 94 -107 20 0 35 32 18 38 -17 5 -15 22 20 153 23 89 36 120 50 124 10 4 18 15 18 26 0 29 -76 26 -121 -4z"/>
 <path d="M1414 1005 c-4 -9 4 -25 20 -40 15 -13 29 -38 32 -55 6 -29 27 -40 39 -20 12 19 -7 70 -37 100 -33 34 -46 37 -54 15z"/>
 <path d="M2073 983 c4 -3 7 -11 7 -18 0 -12 14 -18 76 -29 40 -8 21 22 -21 33 -24 6 -49 12 -56 14 -8 2 -11 2 -6 0z"/>
 <path d="M1555 960 c-4 -7 -2 -16 6 -20 10 -7 8 -25 -10 -92 -47 -173 -52 -188 -67 -188 -9 0 -14 -7 -12 -17 3 -18 127 -58 139 -45 7 8 89 312 89 330 0 20 -134 50 -145 32z"/>
 <path d="M1714 916 c-4 -11 3 -24 20 -37 14 -11 29 -34 34 -51 15 -60 38 -44 57 39 7 36 -1 42 -73 58 -25 5 -33 3 -38 -9z"/>
 <path d="M1123 897 c-11 -12 -25 -41 -32 -65 -9 -31 -19 -46 -37 -53 -37 -13 -25 -32 30 -47 58 -17 80 -4 52 27 -18 19 -18 23 -1 86 10 36 16 67 13 70 -2 3 -14 -5 -25 -18z"/>
 <path d="M1864 859 c9 -47 -49 -259 -77 -281 -15 -11 -19 -20 -12 -27 12 -11 123 -41 154 -41 22 0 29 26 9 32 -9 3 -3 39 21 129 53 194 54 183 -16 202 -83 24 -87 23 -79 -14z"/>
 <path d="M2016 834 c-4 -9 2 -23 14 -32 11 -10 23 -35 28 -57 11 -53 33 -52 47 3 8 34 12 41 23 31 8 -9 12 -51 12 -136 0 -68 3 -123 6 -123 23 0 33 42 34 137 0 93 2 102 20 108 34 11 23 34 -22 45 -24 6 -66 18 -95 26 -63 17 -60 17 -67 -2z"/>
 <path d="M1701 790 l-34 -29 14 -45 c7 -25 19 -46 26 -46 7 0 19 23 28 52 27 93 18 111 -34 68z"/>
 <path d="M1430 771 c0 -17 -61 -71 -80 -71 -15 0 -30 -18 -30 -36 0 -2 18 -4 40 -4 22 0 40 -4 40 -10 0 -5 8 -10 18 -10 14 0 23 14 35 60 21 76 21 80 -3 80 -11 0 -20 -4 -20 -9z"/>
 <path d="M2274 756 c11 -43 -1 -57 -45 -50 -35 6 -39 4 -39 -15 0 -14 6 -21 18 -21 10 0 22 -3 25 -7 4 -3 -17 -50 -45 -105 -30 -58 -48 -102 -42 -107 9 -8 84 -31 100 -31 5 0 45 65 89 145 44 80 85 145 92 145 7 0 13 7 13 15 0 8 -17 19 -42 25 -24 6 -56 15 -72 20 -48 16 -59 13 -52 -14z"/>
 <path d="M2455 720 c-4 -6 -2 -17 4 -24 8 -9 7 -27 -3 -62 -8 -27 -24 -86 -36 -131 -15 -56 -27 -83 -37 -83 -8 0 -13 -7 -11 -17 2 -11 25 -23 67 -36 34 -10 65 -16 68 -13 5 4 93 324 93 337 0 5 -116 39 -134 39 -3 0 -8 -5 -11 -10z"/>
 <path d="M2610 672 c0 -10 5 -23 11 -29 11 -11 9 -20 -42 -195 -13 -44 -25 -68 -34 -68 -9 0 -15 -9 -15 -21 0 -20 4 -21 52 -17 44 5 57 11 89 45 56 61 76 161 44 222 -17 34 -70 81 -91 81 -8 0 -14 -8 -14 -18z"/>
 <path d="M1707 645 c-15 -14 -39 -25 -53 -25 -36 0 -33 -36 5 -43 16 -3 40 -9 53 -12 23 -6 26 -3 37 39 6 25 11 50 11 55 0 18 -24 12 -53 -14z"/>
 <path d="M892 648 c4 -11 334 -106 383 -110 11 -1 25 -5 31 -10 7 -5 16 -8 20 -7 5 1 16 -1 24 -4 23 -10 197 -57 228 -62 15 -2 115 -29 223 -59 108 -30 207 -57 220 -60 13 -3 38 -9 56 -15 24 -7 33 -6 37 4 3 9 -15 18 -57 29 -34 9 -122 32 -196 52 -74 19 -143 33 -153 31 -10 -3 -18 -2 -18 2 0 9 -52 35 -64 32 -4 -1 -49 10 -100 25 -104 30 -122 34 -156 38 -14 2 -32 6 -40 10 -54 22 -150 43 -150 33 0 -8 -3 -7 -9 2 -5 7 -64 29 -132 47 -139 37 -152 39 -147 22z"/>
 <path d="M2835 604 c-61 -32 -87 -68 -105 -149 -7 -33 -7 -58 1 -88 20 -73 120 -149 106 -79 -8 39 50 263 74 284 10 9 19 23 19 32 0 21 -55 21 -95 0z"/>
 <path d="M2944 575 c9 -46 -48 -262 -75 -288 -29 -27 -23 -37 25 -37 84 0 152 77 163 183 7 65 -21 128 -70 157 -44 27 -50 25 -43 -15z"/>
 <path d="M2140 318 c0 -11 41 -26 143 -53 78 -21 149 -39 157 -40 8 -1 22 -5 30 -8 8 -4 26 -8 40 -11 23 -4 68 -17 179 -52 47 -15 57 -13 48 9 -3 8 -25 17 -49 21 -24 4 -55 13 -69 20 -14 7 -38 12 -54 10 -15 -2 -33 3 -40 10 -7 7 -66 25 -131 40 -66 16 -127 33 -137 38 -10 5 -30 11 -45 13 -15 2 -37 7 -49 11 -17 4 -23 2 -23 -8z"/>
 <path d="M2230 195 c7 -8 19 -15 26 -15 8 0 14 7 14 15 0 10 -10 15 -26 15 -22 0 -25 -2 -14 -15z"/>
 </g>

</svg>